<svg id="Group_590" data-name="Group 590" xmlns="http://www.w3.org/2000/svg" xmlns:xlink="http://www.w3.org/1999/xlink" width="25.19" height="37.496" viewBox="0 0 25.19 37.496">
  <defs>
    <clipPath id="clip-path">
      <rect id="Rectangle_344" data-name="Rectangle 344" width="25.19" height="37.496" fill="#fcfcfc"/>
    </clipPath>
  </defs>
  <g id="Group_589" data-name="Group 589" clip-path="url(#clip-path)">
    <path id="Path_423" data-name="Path 423" d="M360.278,369.413a.634.634,0,0,0-.877.173l-2.338,3.486V356.019a.632.632,0,1,0-1.264,0v17.053l-2.338-3.486a.632.632,0,0,0-1.05.7l3.465,5.167s.007,0,.009.009a.615.615,0,0,0,1.092,0s.007,0,.009-.009l3.465-5.167a.633.633,0,0,0-.173-.878" transform="translate(-335.368 -338.302)" fill="#fcfcfc"/>
    <path id="Path_424" data-name="Path 424" d="M10.907,3.509a.632.632,0,0,0-.61-.465H7.069V.633a.632.632,0,1,0-1.264,0V3.044H2.578a.632.632,0,0,0-.61.465L.023,10.62a.633.633,0,0,0,.61.8h3.41v5.907H1.787a.632.632,0,0,0-.632.633v18.9a.632.632,0,0,0,.632.633h9.3a.632.632,0,0,0,.632-.633V17.96a.632.632,0,0,0-.632-.633H8.832V11.42h3.41a.633.633,0,0,0,.61-.8ZM2.419,18.592H4.042v5.664H2.419Zm8.036,17.639H2.419V30.024A2.31,2.31,0,0,0,3.748,29.4c.362-.289.576-.455.878-.418.579.061.691.414.774,1.6.012.173.024.344.041.509l.016.166c.07.745.2,1.248,1.333,1.448a2.946,2.946,0,0,0,.518.05,1.717,1.717,0,0,0,1.482-.864,6.68,6.68,0,0,0,.48-.775c.455-.821.559-.921,1.112-.711a.577.577,0,0,0,.073.013Zm0-7.111c-1.338-.305-1.929.731-2.29,1.381a5.525,5.525,0,0,1-.386.631c-.3.393-.324.4-.767.328a2.031,2.031,0,0,1-.267-.062c-.01-.068-.02-.172-.029-.26L6.7,30.959c-.016-.152-.027-.31-.037-.468-.072-1.029-.18-2.583-1.9-2.766a2.39,2.39,0,0,0-1.8.687,1.761,1.761,0,0,1-.541.347V25.521h8.036Zm0-4.863H8.832V18.592h1.623ZM8.2,10.155a.632.632,0,0,0-.632.633V24.256H5.307V10.787a.632.632,0,0,0-.632-.633H1.461l1.6-5.846H9.814l1.6,5.846Z" transform="translate(0)" fill="#fcfcfc"/>
  </g>
</svg>
