<svg id="Group_588" data-name="Group 588" xmlns="http://www.w3.org/2000/svg" xmlns:xlink="http://www.w3.org/1999/xlink" width="35.722" height="35.746" viewBox="0 0 35.722 35.746">
  <defs>
    <clipPath id="clip-path">
      <rect id="Rectangle_343" data-name="Rectangle 343" width="35.722" height="35.746" fill="#1a1818" stroke="#fff" stroke-width="1"/>
    </clipPath>
  </defs>
  <g id="Group_587" data-name="Group 587" clip-path="url(#clip-path)">
    <path id="Path_412" data-name="Path 412" d="M955.4,399.178a.448.448,0,0,1-.317-.765l3.327-3.327a.448.448,0,1,1,.634.634l-3.327,3.327a.447.447,0,0,1-.317.131" transform="translate(-930.571 -384.87)" fill="#1a1818" stroke="#fff" stroke-width="1"/>
    <path id="Path_413" data-name="Path 413" d="M840.077,283.853a.448.448,0,0,1-.317-.765l3.328-3.327a.448.448,0,0,1,.634.634l-3.328,3.327a.447.447,0,0,1-.317.131" transform="translate(-818.191 -272.489)" fill="#1a1818" stroke="#fff" stroke-width="1"/>
    <path id="Path_414" data-name="Path 414" d="M956.785,11.439a1.546,1.546,0,0,1-1.1-.456L952.471,7.77a1.559,1.559,0,0,1,0-2.2l1.145-1.145a4.931,4.931,0,0,1,8.55-2.813,5,5,0,0,1-.105,6.76,4.916,4.916,0,0,1-3.031,1.468l-1.145,1.145a1.546,1.546,0,0,1-1.1.456M958.52.9A4.03,4.03,0,0,0,954.5,4.656a.448.448,0,0,1-.13.286L953.1,6.2a.661.661,0,0,0,0,.934l3.213,3.213a.66.66,0,0,0,.934,0l1.261-1.261a.448.448,0,0,1,.287-.13,4.023,4.023,0,0,0,2.619-1.212A4.038,4.038,0,0,0,958.52.9" transform="translate(-927.708)" fill="#1a1818" stroke="#fff" stroke-width="1"/>
    <path id="Path_415" data-name="Path 415" d="M1124.438,113.1a2.157,2.157,0,1,1,1.525-.632,2.142,2.142,0,0,1-1.525.632m0-3.417a1.261,1.261,0,1,0,.892.369,1.252,1.252,0,0,0-.892-.369" transform="translate(-1093.626 -106.005)" fill="#1a1818" stroke="#fff" stroke-width="1"/>
    <path id="Path_416" data-name="Path 416" d="M749.45,398.7a.448.448,0,0,1-.317-.765l.734-.734a.661.661,0,0,0,0-.934l-3.213-3.213a.66.66,0,0,0-.934,0l-.734.734a.448.448,0,0,1-.634-.634l.734-.734a1.556,1.556,0,0,1,2.2,0l3.213,3.213a1.559,1.559,0,0,1,0,2.2l-.734.734a.447.447,0,0,1-.317.131" transform="translate(-725.219 -381.953)" fill="#1a1818" stroke="#fff" stroke-width="1"/>
    <path id="Path_417" data-name="Path 417" d="M3.917,1021.561a3.916,3.916,0,0,1-2.995-6.442l2.8-3.315a.448.448,0,0,1,.685.578l-2.8,3.315a3.02,3.02,0,0,0,4.256,4.256l3.315-2.8a.448.448,0,0,1,.578.685l-3.315,2.8a3.921,3.921,0,0,1-2.524.923m.029-1.963a1.983,1.983,0,1,1,1.4-.581,1.97,1.97,0,0,1-1.4.581m0-3.07a1.087,1.087,0,1,0,.769.318,1.08,1.08,0,0,0-.769-.318" transform="translate(0 -985.816)" fill="#1a1818" stroke="#fff" stroke-width="1"/>
    <path id="Path_418" data-name="Path 418" d="M78.865,1171.748a1.983,1.983,0,1,1,1.4-.581,1.97,1.97,0,0,1-1.4.581m0-3.07a1.087,1.087,0,1,0,.769.318,1.08,1.08,0,0,0-.769-.318" transform="translate(-74.919 -1137.965)" fill="#1a1818" stroke="#fff" stroke-width="1"/>
    <path id="Path_419" data-name="Path 419" d="M540.227,827.861a.448.448,0,0,1-.317-.765l7.505-7.505a.448.448,0,0,1,.634.634l-7.505,7.505a.447.447,0,0,1-.317.131" transform="translate(-525.997 -798.536)" fill="#1a1818" stroke="#fff" stroke-width="1"/>
    <path id="Path_420" data-name="Path 420" d="M251.94,539.563a.448.448,0,0,1-.317-.765l7.505-7.506a.448.448,0,0,1,.634.634l-7.505,7.506a.447.447,0,0,1-.317.131" transform="translate(-245.071 -517.599)" fill="#1a1818" stroke="#fff" stroke-width="1"/>
    <path id="Path_421" data-name="Path 421" d="M110.091,835.306a.924.924,0,0,1-.658-.272l-7.141-7.141a.931.931,0,0,1,0-1.315l3.122-3.122a.93.93,0,0,1,1.315,0l7.141,7.141a.931.931,0,0,1,0,1.315l-3.122,3.122a.924.924,0,0,1-.658.272m-4.02-11.227a.032.032,0,0,0-.024.01l-3.122,3.122a.034.034,0,0,0,0,.048l7.141,7.141a.034.034,0,0,0,.048,0l3.122-3.122a.034.034,0,0,0,0-.048l-7.141-7.141a.032.032,0,0,0-.024-.01" transform="translate(-99.415 -802.165)" fill="#1a1818" stroke="#fff" stroke-width="1"/>
    <path id="Path_422" data-name="Path 422" d="M551.577,393.8a.924.924,0,0,1-.658-.272l-7.141-7.141a.93.93,0,0,1,0-1.315l3.122-3.122a.93.93,0,0,1,1.315,0l7.141,7.141a.931.931,0,0,1,0,1.315l-3.122,3.122a.924.924,0,0,1-.658.272m-4.02-11.227a.032.032,0,0,0-.024.01l-3.122,3.122a.034.034,0,0,0,0,.048l7.141,7.141a.034.034,0,0,0,.048,0l3.122-3.122a.034.034,0,0,0,0-.048l-7.141-7.141a.032.032,0,0,0-.024-.01" transform="translate(-529.628 -371.935)" fill="#1a1818" stroke="#fff" stroke-width="1"/>
  </g>
</svg>
