<svg id="Group_596" data-name="Group 596" xmlns="http://www.w3.org/2000/svg" xmlns:xlink="http://www.w3.org/1999/xlink" width="41" height="41" viewBox="0 0 41 41">
  <defs>
    <clipPath id="clip-path">
      <rect id="Rectangle_347" data-name="Rectangle 347" width="41" height="41" fill="#fff" stroke="#fff" stroke-width="0.2"/>
    </clipPath>
  </defs>
  <g id="Group_595" data-name="Group 595" clip-path="url(#clip-path)">
    <path id="Path_434" data-name="Path 434" d="M15.651,8.488l-.826-.826A1.494,1.494,0,0,0,15.1,6.125a1.662,1.662,0,0,0-.369-.568,1.7,1.7,0,0,0-.562-.379,1.538,1.538,0,0,0-1.587.247L11.308,4.148A1.032,1.032,0,0,1,11.386,4a1.767,1.767,0,0,1,.2-.259c.079-.086.154-.163.226-.23a2.136,2.136,0,0,1,.2-.165c.307-.223.33-.159.614.073L14.8,5.2a1.589,1.589,0,0,0,2.234-.218l0,0a1.589,1.589,0,0,0-.22-2.236L14.675.99A4.615,4.615,0,0,0,13.339.167a2.968,2.968,0,0,0-1.625-.1,3.8,3.8,0,0,0-1.281.513A5.7,5.7,0,0,0,9.243,1.59a5.05,5.05,0,0,0-.389.478c-.088.124-.17.251-.244.381a5.106,5.106,0,0,0-3.21.226A5.07,5.07,0,0,0,2.435,8.62c-.122.071-.242.148-.361.232a5.09,5.09,0,0,0-.49.4A5.693,5.693,0,0,0,.576,10.437a3.8,3.8,0,0,0-.513,1.281A3.158,3.158,0,0,0,.118,13.2a3.507,3.507,0,0,0,.746,1.336l.039.045,1.83,2.236a1.59,1.59,0,0,0,2.236.22l0,0A1.588,1.588,0,0,0,5.19,14.8L3.3,12.492l-.032-.043a.48.48,0,0,1-.08-.117l-.008-.016a.8.8,0,0,1,.149-.293,3.052,3.052,0,0,1,.4-.434,1.755,1.755,0,0,1,.266-.2.958.958,0,0,1,.139-.071L5.4,12.587l-.064.064a1.125,1.125,0,0,0-.363,1.156.892.892,0,0,0,.224.36.933.933,0,0,0,.362.221,1.138,1.138,0,0,0,1.172-.342l.065-.065.345.341a1.492,1.492,0,0,0-.346,1.371,1.282,1.282,0,0,0,.288.523,1.221,1.221,0,0,0,.5.33,1.543,1.543,0,0,0,1.464-.325l.815.815a1.689,1.689,0,0,0-.5,1.491,1.185,1.185,0,0,0,.265.538,1.118,1.118,0,0,0,.5.329,1.8,1.8,0,0,0,1.644-.45l.824.819a1.692,1.692,0,0,0-.508,1.495,1.185,1.185,0,0,0,.265.538,1.114,1.114,0,0,0,.5.329,1.8,1.8,0,0,0,1.643-.449l.837.838a1.689,1.689,0,0,0-.5,1.491,1.183,1.183,0,0,0,.265.538,1.113,1.113,0,0,0,.5.329,1.8,1.8,0,0,0,1.643-.449l.814.814a1.689,1.689,0,0,0-.5,1.491,1.182,1.182,0,0,0,.265.538,1.119,1.119,0,0,0,.5.329,1.8,1.8,0,0,0,1.643-.449l.765.768a1.675,1.675,0,0,0-.464,1.51,1.22,1.22,0,0,0,.827.879,1.758,1.758,0,0,0,1.614-.413l.815.815a1.691,1.691,0,0,0-.506,1.493,1.181,1.181,0,0,0,.265.538,1.117,1.117,0,0,0,.5.329,1.8,1.8,0,0,0,1.646-.452l.727.727a1.737,1.737,0,0,0-.418,1.626,1.331,1.331,0,0,0,.33.561,1.209,1.209,0,0,0,.563.321,1.639,1.639,0,0,0,1.517-.515l1.191,1.191c.191.182.148.347.028.57a2.054,2.054,0,0,1-.3.407,3.676,3.676,0,0,1-.512.472c-.146.108-.331.267-.494.127L25.7,36.185a1.59,1.59,0,1,0-2,2.473l2.293,1.849a3.414,3.414,0,0,0,1.373.741,3.207,3.207,0,0,0,1.531.01,4.033,4.033,0,0,0,1.289-.556,6.343,6.343,0,0,0,1.221-1.049,5.119,5.119,0,0,0,.881-1.29q.089-.19.157-.383a3.928,3.928,0,0,0,2.02-.2,5.678,5.678,0,0,0,3.322-3.32,3.919,3.919,0,0,0,.2-2.018q.19-.067.378-.155a5.123,5.123,0,0,0,1.29-.88A6.333,6.333,0,0,0,40.7,30.19a4.042,4.042,0,0,0,.556-1.289,3.209,3.209,0,0,0-.01-1.531A3.422,3.422,0,0,0,40.507,26L38.657,23.7a1.59,1.59,0,0,0-2.474,2L38.1,28.073a.317.317,0,0,1,.06.093.067.067,0,0,1,0,.031,1.064,1.064,0,0,1-.191.37,3.753,3.753,0,0,1-.473.511,2.021,2.021,0,0,1-.406.3.8.8,0,0,1-.315.1.221.221,0,0,1-.111-.023.494.494,0,0,1-.144-.108L34.1,26.931a1.583,1.583,0,0,0,.536-1.311,1.212,1.212,0,0,0-.247-.6,1.334,1.334,0,0,0-.518-.4,1.924,1.924,0,0,0-1.828.251l-.707-.707a1.65,1.65,0,0,0,.471-1.346,1.22,1.22,0,0,0-.269-.6A1.277,1.277,0,0,0,31,21.85a1.85,1.85,0,0,0-1.679.3L28.6,21.43a1.642,1.642,0,0,0,.511-1.32,1.2,1.2,0,0,0-.25-.6,1.27,1.27,0,0,0-.526-.388,1.917,1.917,0,0,0-1.758.285l-.7-.7a1.642,1.642,0,0,0,.512-1.32,1.192,1.192,0,0,0-.25-.6,1.268,1.268,0,0,0-.526-.388,1.917,1.917,0,0,0-1.758.285l-.724-.724a1.644,1.644,0,0,0,.512-1.32,1.192,1.192,0,0,0-.25-.6,1.268,1.268,0,0,0-.526-.388,1.916,1.916,0,0,0-1.759.286l-.708-.708a1.643,1.643,0,0,0,.512-1.321,1.2,1.2,0,0,0-.25-.6,1.269,1.269,0,0,0-.526-.388,1.918,1.918,0,0,0-1.759.286l-.707-.707a1.7,1.7,0,0,0,.472-1.368,1.224,1.224,0,0,0-.8-.976,1.866,1.866,0,0,0-1.689.328Zm10.84,25.175.214.214a.231.231,0,0,0,.336.31.725.725,0,0,1,.681-.2.51.51,0,0,1,.207.138.628.628,0,0,1,.132.226.49.49,0,0,1-.077.488,1.31,1.31,0,0,1-1.233.551.749.749,0,0,1-.349-.2.873.873,0,0,1-.214-.367,1.274,1.274,0,0,1,.3-1.165Zm.6-.051-.441-.441,0,0,0,0h0l-.853-.853c.322-.275.67-.574,1.028-.883l.684-.588,3.726,3.725a3.193,3.193,0,0,1,.766,1.1,2.884,2.884,0,0,1,.2,1.279,3.388,3.388,0,0,1-.322,1.219,4.663,4.663,0,0,1-.8,1.173,5.874,5.874,0,0,1-1.133.973,3.587,3.587,0,0,1-1.141.5,2.75,2.75,0,0,1-1.313-.007,2.958,2.958,0,0,1-1.188-.645l-2.3-1.858a1.127,1.127,0,0,1,1.416-1.754l2.361,1.9c.363.313.718.151,1.07-.106a4.045,4.045,0,0,0,.577-.531,2.492,2.492,0,0,0,.367-.5.846.846,0,0,0-.116-1.122l-1.214-1.214a.988.988,0,0,0,.046-.762,1.092,1.092,0,0,0-.23-.394.965.965,0,0,0-.394-.262,1.026,1.026,0,0,0-.782.058Zm2.451-1.385,2.407-2.956,2.279,2.278a4.006,4.006,0,0,0,.476.425.23.23,0,0,0,.028.041,1.748,1.748,0,0,1,.469,1.262,2.239,2.239,0,0,1-1.985,1.929,1.779,1.779,0,0,1-1.293-.56,4.065,4.065,0,0,0-.378-.415l-2-2Zm2.079-3.284L29.216,31.9l-.61-.61,2.456-2.907.561.561Zm-1.1-.644L28.277,30.96l-.423-.423c.89-.763,1.811-1.542,2.672-2.238M14.5,7.333l-.374-.374a.231.231,0,0,0,.1-.452.9.9,0,0,0-.64.124,2.1,2.1,0,0,0-.431.34L6.4,13.719a.693.693,0,0,1-.7.231.469.469,0,0,1-.183-.11.448.448,0,0,1-.11-.177.688.688,0,0,1,.25-.684L12.74,5.906A1.122,1.122,0,0,1,14,5.606a1.232,1.232,0,0,1,.409.276,1.2,1.2,0,0,1,.266.409,1.045,1.045,0,0,1-.176,1.043Zm-.845-.191,1.615,1.614c-.294.207-.6.429-.91.659s-.608.46-.913.7L12.05,8.725,13.476,7.3c.051-.05.111-.106.175-.157Zm-3.424,3.407L9.145,11.83l-.1-.1ZM8.719,12.057l1.13,1.129-.274.243c-.406.36-.8.711-1.195,1.055-.2.178-.28.137-.455-.038l-.018-.016-.785-.775,1.6-1.6Zm3.532-6.315L10.658,7.333,9.015,5.69a2.355,2.355,0,0,0-2.564-.5,2.366,2.366,0,0,0-.763.511A2.348,2.348,0,0,0,5,7.357a2.375,2.375,0,0,0,.177.905,2.324,2.324,0,0,0,.506.761l1.642,1.642-1.6,1.6L4.091,10.614A4.606,4.606,0,0,1,10.607,4.1l1.644,1.643ZM10.332,7.66,7.653,10.337,6.01,8.694A1.857,1.857,0,0,1,5.6,8.085a1.916,1.916,0,0,1-.142-.728,1.891,1.891,0,0,1,1.89-1.89,1.892,1.892,0,0,1,1.336.55L10.332,7.66ZM32.576,37.533a3.609,3.609,0,0,0,.08-.557,3.351,3.351,0,0,0-.222-1.45,2.033,2.033,0,0,0,.8.141A2.7,2.7,0,0,0,35.666,33.3a2.033,2.033,0,0,0-.136-.867,3.362,3.362,0,0,0,1.447.22,3.607,3.607,0,0,0,.562-.082,3.479,3.479,0,0,1-.185,1.732,5.207,5.207,0,0,1-3.043,3.041,3.492,3.492,0,0,1-1.735.185ZM28.024,28l1.19-1.461.251.251c-.484.393-.965.8-1.442,1.21Zm.862-1.79-2.407,2.955-.61-.61,2.456-2.907Zm-1.133-.6-2.213,2.619-.419-.419c.875-.751,1.781-1.515,2.632-2.2m-3.9,5.425.029.027.01.01a.249.249,0,0,0,.025.022,1.144,1.144,0,0,0,.529.3.8.8,0,0,0,.711-.244c.348-.307.727-.644,1.115-.989a55.944,55.944,0,0,1,6.01-4.886,1.48,1.48,0,0,1,1.4-.224.874.874,0,0,1,.34.261.746.746,0,0,1,.154.369,1.141,1.141,0,0,1-.4.928l-.379-.379a.231.231,0,0,0-.238-.4c-.081.045-.166.1-.254.149l-.005,0a64.741,64.741,0,0,0-6.381,5.095q-.665.572-1.279,1.1a1.433,1.433,0,0,1-1.306.447.663.663,0,0,1-.3-.194.719.719,0,0,1-.16-.328,1.233,1.233,0,0,1,.38-1.07Zm9.133-4.559.611.611,0,0,0,0,0,0,2.579,2.578a.944.944,0,0,0,.282.208.685.685,0,0,0,.336.065,1.24,1.24,0,0,0,.5-.157,2.492,2.492,0,0,0,.5-.367,4.163,4.163,0,0,0,.531-.576,1.525,1.525,0,0,0,.27-.543.511.511,0,0,0-.018-.285.771.771,0,0,0-.146-.243l-1.9-2.36A1.127,1.127,0,0,1,38.3,23.994l1.859,2.3a2.965,2.965,0,0,1,.645,1.188,2.752,2.752,0,0,1,.006,1.312,3.577,3.577,0,0,1-.5,1.14,5.887,5.887,0,0,1-.974,1.132,4.654,4.654,0,0,1-1.173.8,3.39,3.39,0,0,1-1.219.322,2.891,2.891,0,0,1-1.278-.2,3.193,3.193,0,0,1-1.105-.767l-3.422-3.421c.688-.54,1.32-1,1.845-1.338Zm-8.758,4.276-.008-.008-1.155-1.155.209-.182c.47-.409.975-.848,1.5-1.3l1.465,1.465-.271.242c-.372.332-.738.657-1.112.987-.128.113-.228.154-.315.136a.726.726,0,0,1-.308-.189Zm5.6-4.251L28.412,25.08c.689-.538,1.323-1,1.849-1.334l1.39,1.39c-.6.414-1.215.873-1.825,1.358Zm-4.6-1.137,1.26-1.547.27.27c-.512.415-1.024.845-1.529,1.277m.931-1.875-2.407,2.955-.61-.61L25.6,22.922l.561.561Zm-1.071-.676L22.815,25.5l-.429-.429c.9-.772,1.833-1.561,2.7-2.263Zm-4.029,5.431.024.024,0,0h0l0,0a1.305,1.305,0,0,0,.63.4.8.8,0,0,0,.711-.244l.682-.6a72.427,72.427,0,0,1,6.447-5.276,1.412,1.412,0,0,1,1.275-.262.816.816,0,0,1,.346.24.758.758,0,0,1,.169.37,1.191,1.191,0,0,1-.342.948L30.67,23.5a.231.231,0,0,0-.238-.4,65.206,65.206,0,0,0-7.463,5.948l-.458.4a1.368,1.368,0,0,1-1.276.407.756.756,0,0,1-.515-.55,1.214,1.214,0,0,1,.341-1.071Zm.353-.3h0l-1.09-1.094c.322-.276.671-.576,1.031-.886l.681-.586,1.479,1.479-.707.624-.681.6c-.128.113-.228.154-.315.136a.926.926,0,0,1-.4-.274Zm5.707-4.148-1.448-1.447c.687-.54,1.319-1,1.844-1.339l.565.565.011.013a.206.206,0,0,0,.032.03l.807.807c-.6.423-1.2.886-1.812,1.371Zm-4.477-1.368,1.1-1.353.241.241c-.45.361-.9.734-1.343,1.111Zm.773-1.681L21.011,23.7l-.61-.61,2.455-2.906.561.561Zm-1.169-.56-2.176,2.576-.408-.408c.86-.737,1.748-1.489,2.585-2.167m-3.862,5.38.056.056a.235.235,0,0,0,.038.031.938.938,0,0,0,.507.262.922.922,0,0,0,.727-.3l.617-.548.871-.773a.234.234,0,0,0,.042-.033l.016-.018A52.127,52.127,0,0,1,26.816,19.8a1.475,1.475,0,0,1,1.343-.25.81.81,0,0,1,.336.246.736.736,0,0,1,.154.368,1.19,1.19,0,0,1-.38.936l-.344-.343a.231.231,0,0,0-.235-.4,57.439,57.439,0,0,0-6.64,5.247q-.665.572-1.279,1.1a1.433,1.433,0,0,1-1.306.447.663.663,0,0,1-.3-.194.719.719,0,0,1-.16-.328,1.232,1.232,0,0,1,.379-1.068Zm.364-.292L17.6,24.12c.322-.276.67-.574,1.029-.884l.682-.587,1.429,1.429-.717.637-.617.548c-.159.141-.272.2-.364.188a.588.588,0,0,1-.292-.181Zm5.6-4.248-1.4-1.4c.687-.539,1.319-1,1.844-1.339l1.388,1.387c-.607.415-1.22.871-1.831,1.352ZM19.837,19.8l1.187-1.457.25.25c-.482.392-.962.8-1.437,1.207m.858-1.786L18.29,20.972l-.61-.61,2.454-2.9Zm-1.053-.7-2.291,2.711-.432-.432c.908-.778,1.847-1.573,2.723-2.279Zm-3.977,5.517.108.108a.235.235,0,0,0,.082.053.984.984,0,0,0,.4.2.8.8,0,0,0,.711-.243c.347-.306.728-.645,1.116-.991a55.8,55.8,0,0,1,6.008-4.884,1.476,1.476,0,0,1,1.343-.251.813.813,0,0,1,.336.246.738.738,0,0,1,.153.369,1.187,1.187,0,0,1-.38.936l-.344-.343a.231.231,0,0,0-.234-.4,47.856,47.856,0,0,0-5.767,4.5.219.219,0,0,0-.043.034l-.013.014-.817.7q-.663.572-1.278,1.1a1.432,1.432,0,0,1-1.306.447.659.659,0,0,1-.3-.194.718.718,0,0,1-.16-.328,1.233,1.233,0,0,1,.379-1.068Zm.322-.334-1.131-1.131c.322-.276.67-.575,1.029-.884l.681-.586,1.478,1.478-.267.238c-.373.332-.737.657-1.114.988-.128.113-.228.154-.315.136a.843.843,0,0,1-.362-.24Zm5.65-4.2L20.2,16.875c.687-.54,1.319-1,1.844-1.339l.571.571.005.006a.215.215,0,0,0,.025.024l.81.81c-.6.414-1.215.873-1.824,1.359ZM17.09,17.059,18.277,15.6l.25.25c-.482.391-.962.8-1.437,1.207Zm.858-1.785-2.406,2.954-.61-.61,2.454-2.9.561.561Zm-1.131-.6L14.6,17.288l-.416-.416c.876-.75,1.78-1.516,2.629-2.2Zm-3.9,5.423c.028.026.055.051.082.075h0l0,0,0,0h0a1.1,1.1,0,0,0,.5.277.8.8,0,0,0,.711-.243c.347-.306.728-.645,1.116-.991a55.8,55.8,0,0,1,6.008-4.884,1.475,1.475,0,0,1,1.343-.251.81.81,0,0,1,.336.246.738.738,0,0,1,.153.369,1.188,1.188,0,0,1-.38.937l-.344-.344a.231.231,0,0,0-.234-.4,57.518,57.518,0,0,0-6.64,5.247q-.663.572-1.278,1.1A1.434,1.434,0,0,1,13,21.683a.66.66,0,0,1-.3-.194.722.722,0,0,1-.16-.328,1.233,1.233,0,0,1,.38-1.07Zm.4-.261-1.193-1.186c.322-.275.669-.574,1.027-.883l.684-.589L15.3,18.635l-.268.238c-.373.332-.737.657-1.114.988-.128.113-.228.154-.315.136a.675.675,0,0,1-.284-.169Zm5.572-4.269-1.416-1.416c.687-.539,1.319-1,1.844-1.339l1.4,1.4c-.6.414-1.215.873-1.824,1.359ZM14.36,14.329l1.186-1.457.25.25c-.482.391-.962.8-1.437,1.206m.857-1.785-2.4,2.953-.61-.61,2.454-2.9.561.561Zm-1.164-.565-2.179,2.579-.409-.409c.862-.738,1.751-1.492,2.588-2.17Zm-3.864,5.384a1.244,1.244,0,0,0,.593.36.8.8,0,0,0,.711-.243c.349-.307.728-.645,1.115-.99A55.868,55.868,0,0,1,18.617,11.6a1.475,1.475,0,0,1,1.343-.25.81.81,0,0,1,.336.246.736.736,0,0,1,.154.368,1.19,1.19,0,0,1-.381.937l-.344-.343a.231.231,0,0,0-.233-.4,57.532,57.532,0,0,0-6.642,5.249q-.663.571-1.276,1.1a1.434,1.434,0,0,1-1.306.447.662.662,0,0,1-.3-.194.721.721,0,0,1-.16-.328,1.233,1.233,0,0,1,.38-1.07Zm.3-.354-.012-.013L9.4,15.922l1.032-.886.679-.584,1.455,1.455-.268.239c-.372.332-.738.658-1.113.988-.128.113-.228.154-.315.136a.889.889,0,0,1-.384-.261Zm5.672-4.176-1.409-1.409c.687-.539,1.319-1,1.844-1.339l1.389,1.389c-.6.414-1.215.874-1.824,1.359Zm-5.09-.721,1.687-2.028.325.325c-.676.55-1.351,1.127-2.012,1.7Zm1.359-2.356L9.995,12.68l-.522-.522,2.454-2.9.5.5ZM7.471,14.648l.113.112.012.013a.7.7,0,0,0,1.089.057c.379-.332.782-.689,1.2-1.056,1.137-1.008,2.355-2.088,3.566-3.069.388-.315.79-.625,1.186-.92.442-.33.871-.636,1.265-.906a1.431,1.431,0,0,1,1.281-.284.759.759,0,0,1,.5.612,1.234,1.234,0,0,1-.343.97L17,9.839a.231.231,0,0,0-.233-.4,57.455,57.455,0,0,0-6.637,5.245q-.665.572-1.281,1.1a1.152,1.152,0,0,1-1.117.326.762.762,0,0,1-.311-.206.82.82,0,0,1-.183-.333,1.029,1.029,0,0,1,.232-.922ZM3.794,10.97l-.037.022a2.225,2.225,0,0,0-.337.257,3.513,3.513,0,0,0-.464.5,1.235,1.235,0,0,0-.231.478.487.487,0,0,0,.037.286.926.926,0,0,0,.152.235c.586.781,1.294,1.583,1.919,2.345a1.126,1.126,0,1,1-1.741,1.429l-2.02-2.467a2.919,2.919,0,0,1-.509-.984,2.705,2.705,0,0,1-.047-1.268A3.331,3.331,0,0,1,.97,10.682,5.238,5.238,0,0,1,1.9,9.589a4.647,4.647,0,0,1,.446-.36q.116-.082.234-.155.041.112.086.222a5.08,5.08,0,0,0,1.1,1.643l.03.03ZM9.065,2.589q.077-.126.166-.251A4.6,4.6,0,0,1,9.584,1.9,5.243,5.243,0,0,1,10.678.975,3.338,3.338,0,0,1,11.8.522,2.523,2.523,0,0,1,13.182.6a4.183,4.183,0,0,1,1.2.745L16.521,3.1a1.126,1.126,0,0,1-1.428,1.742L12.915,3.058c-.448-.367-.68-.452-1.178-.09a2.588,2.588,0,0,0-.242.2c-.081.076-.164.161-.25.255a2.1,2.1,0,0,0-.282.378l-.03-.03a5.081,5.081,0,0,0-1.646-1.1q-.11-.045-.221-.085Z" transform="translate(-0.345 -0.04)" fill="#fff" stroke="#fff" stroke-width="0.2"/>
  </g>
</svg>
