<svg id="Group_594" data-name="Group 594" xmlns="http://www.w3.org/2000/svg" xmlns:xlink="http://www.w3.org/1999/xlink" width="27.425" height="35.285" viewBox="0 0 27.425 35.285">
  <defs>
    <clipPath id="clip-path">
      <rect id="Rectangle_346" data-name="Rectangle 346" width="27.425" height="35.285" fill="#fff"/>
    </clipPath>
  </defs>
  <g id="Group_593" data-name="Group 593" clip-path="url(#clip-path)">
    <path id="Path_428" data-name="Path 428" d="M9.589,35.285c-2.633,0-5.077-1.885-6.884-5.307A26.985,26.985,0,0,1,0,17.64,26.971,26.971,0,0,1,2.705,5.3C4.512,1.884,6.956,0,9.589,0h8.247c2.633,0,5.077,1.884,6.884,5.306a26.976,26.976,0,0,1,2.705,12.336A26.976,26.976,0,0,1,24.72,29.979c-1.807,3.421-4.251,5.306-6.884,5.306Zm0-34.118C7.41,1.167,5.332,2.83,3.737,5.85a25.794,25.794,0,0,0-2.57,11.79,25.808,25.808,0,0,0,2.57,11.793c1.595,3.021,3.673,4.685,5.852,4.685h8.247c2.179,0,4.257-1.663,5.852-4.684a25.8,25.8,0,0,0,2.57-11.792,25.8,25.8,0,0,0-2.57-11.791c-1.595-3.02-3.673-4.684-5.852-4.684Z" transform="translate(0 0)" fill="#fff"/>
    <path id="Path_429" data-name="Path 429" d="M45.358,37.889c-2.557,0-4.941-1.846-6.712-5.2a26.76,26.76,0,0,1-2.683-12.242A26.718,26.718,0,0,1,38.647,8.214c1.771-3.347,4.154-5.191,6.712-5.191a.389.389,0,1,1,0,.778c-2.255,0-4.395,1.7-6.024,4.776a25.933,25.933,0,0,0-2.592,11.871,25.976,25.976,0,0,0,2.593,11.879c1.63,3.085,3.769,4.784,6.024,4.784a.389.389,0,1,1,0,.778" transform="translate(-33.166 -2.788)" fill="#fff"/>
    <path id="Path_430" data-name="Path 430" d="M134.78,37.889c-2.289,0-4.416-1.852-5.988-5.215a29.643,29.643,0,0,1-2.371-12.225,29.6,29.6,0,0,1,2.371-12.218c1.572-3.358,3.7-5.208,5.988-5.208a.389.389,0,1,1,0,.778c-1.97,0-3.847,1.69-5.283,4.759a28.811,28.811,0,0,0-2.3,11.888,28.858,28.858,0,0,0,2.3,11.9c1.437,3.074,3.314,4.767,5.283,4.767a.389.389,0,1,1,0,.778" transform="translate(-116.585 -2.788)" fill="#fff"/>
    <path id="Path_431" data-name="Path 431" d="M92.021,37.889c-2.289,0-4.416-1.852-5.988-5.215a29.643,29.643,0,0,1-2.371-12.225A29.6,29.6,0,0,1,86.033,8.231c1.572-3.358,3.7-5.208,5.988-5.208a.389.389,0,0,1,0,.778c-1.97,0-3.847,1.69-5.283,4.759a28.811,28.811,0,0,0-2.3,11.888,28.859,28.859,0,0,0,2.3,11.9c1.437,3.074,3.314,4.767,5.283,4.767a.389.389,0,0,1,0,.778" transform="translate(-77.153 -2.788)" fill="#fff"/>
    <path id="Path_432" data-name="Path 432" d="M198.857,97.344c-.89,0-2.162-.63-3.168-3.633a26.18,26.18,0,0,1-1.113-7.995,26.179,26.179,0,0,1,1.113-7.995c1.005-3,2.277-3.633,3.168-3.633s2.162.63,3.168,3.633a26.176,26.176,0,0,1,1.113,7.995,26.176,26.176,0,0,1-1.113,7.995c-1.005,3-2.277,3.633-3.168,3.633m0-22.088c-1.3,0-3.114,3.98-3.114,10.461s1.814,10.461,3.114,10.461,3.114-3.98,3.114-10.461-1.813-10.461-3.114-10.461" transform="translate(-179.437 -68.324)" fill="#fff"/>
    <path id="Path_433" data-name="Path 433" d="M204.426,157.2a.584.584,0,0,1-.039-1.166c.3-.2.969-1.844.969-4.947s-.671-4.746-.969-4.947a.584.584,0,0,1,.039-1.166c.712,0,1.261.689,1.633,2.049a18.024,18.024,0,0,1,0,8.128c-.372,1.359-.922,2.049-1.633,2.049m0-11.058h0Z" transform="translate(-187.982 -133.693)" fill="#fff"/>
  </g>
</svg>
