<svg xmlns="http://www.w3.org/2000/svg" xmlns:xlink="http://www.w3.org/1999/xlink" width="490.489" height="87.777" viewBox="0 0 490.489 87.777">
  <defs>
    <clipPath id="clip-path">
      <path id="Path_307" data-name="Path 307" d="M0-29.223H490.489V-117H0Z" transform="translate(0 117)" fill="#fff"/>
    </clipPath>
  </defs>
  <g id="Group_581" data-name="Group 581" transform="translate(0 0)">
    <g id="Group_480" data-name="Group 480" transform="translate(76.393 12.493)">
      <path id="Path_304" data-name="Path 304" d="M-10.365-9.3V.227H-41.5V-37.219h30.44V-27.7H-29.087v4.386h15.834v9.1H-29.087v4.92h18.724Z" transform="translate(41.499 37.219)" fill="#fff"/>
    </g>
    <g id="Group_481" data-name="Group 481" transform="translate(112.393 12.493)">
      <path id="Path_305" data-name="Path 305" d="M-10.365-9.3V.227H-41.5V-37.219h30.44V-27.7H-29.087v4.386h15.834v9.1H-29.087v4.92h18.724Z" transform="translate(41.499 37.219)" fill="#fff"/>
    </g>
    <g id="Group_483" data-name="Group 483" transform="translate(0 0)" clip-path="url(#clip-path)">
      <g id="Group_482" data-name="Group 482" transform="translate(148.395 12.493)">
        <path id="Path_306" data-name="Path 306" d="M0,0H18.456c12.518,0,21.13,7.115,21.13,18.724s-8.613,18.724-21.13,18.724H0V0ZM17.922,27.6c5.3,0,8.933-3.156,8.933-8.881s-3.639-8.881-8.933-8.881h-5.3V27.6h5.3Z" fill="#fff"/>
      </g>
    </g>
    <g id="Group_484" data-name="Group 484" transform="translate(247.467 12.493)">
      <path id="Path_308" data-name="Path 308" d="M-3.651-3.259H-14.619v-9.789H19.94v9.789H8.972V24.4H-3.654V-3.259Z" transform="translate(14.619 13.048)" fill="#fff"/>
    </g>
    <g id="Group_487" data-name="Group 487" transform="translate(0 0)" clip-path="url(#clip-path)">
      <g id="Group_485" data-name="Group 485" transform="translate(283.257 11.634)">
        <path id="Path_309" data-name="Path 309" d="M0-6.519C0-17.86,8.933-26.1,21.13-26.1S42.261-17.86,42.261-6.519s-8.933,19.58-21.131,19.58S0,4.822,0-6.519m29.53,0c0-5.831-3.744-9.361-8.4-9.361s-8.4,3.53-8.4,9.361,3.744,9.361,8.4,9.361,8.4-3.53,8.4-9.361" transform="translate(0 26.099)" fill="#fff"/>
      </g>
      <g id="Group_486" data-name="Group 486" transform="translate(330.119 12.492)">
        <path id="Path_310" data-name="Path 310" d="M-5.344-9.332H-8.768V.083H-21.394V-37.364H-3.365c10.43,0,17.066,5.457,17.066,14.125A12.543,12.543,0,0,1,6.64-11.471L14.5.085H1.021L-5.346-9.33Zm1.176-18.3h-4.6v8.773h4.6c3.477,0,5.135-1.658,5.135-4.387S-.691-27.629-4.168-27.629Z" transform="translate(21.394 37.364)" fill="#fff"/>
      </g>
    </g>
    <g id="Group_488" data-name="Group 488" transform="translate(369.974 12.493)">
      <path id="Path_312" data-name="Path 312" d="M-11.131-12.467l-.108-17.066-8.131,13.7h-5.562l-8.131-13.105v16.476h-11.5V-49.913h10.377l12.2,19.955,11.875-19.955H.262L.368-12.467h-11.5Z" transform="translate(44.565 49.913)" fill="#fff"/>
    </g>
    <g id="Group_511" data-name="Group 511" transform="translate(0 0)" clip-path="url(#clip-path)">
      <g id="Group_489" data-name="Group 489" transform="translate(38.14 34.605)">
        <path id="Path_313" data-name="Path 313" d="M-.2,0C-.372.05-.534.1-.687.148c-.1.035-.107.035-.014,0l-.013,0L-.82.167C-.618.113-.414.059-.2.005Z" transform="translate(0.82)" fill="#fff"/>
      </g>
      <g id="Group_490" data-name="Group 490" transform="translate(44.261 39.444)">
        <path id="Path_314" data-name="Path 314" d="M-.274,0C-.553.071-.815.145-1.1.219-.857.145-.629.077-.407.01H-.4A.553.553,0,0,1-.272,0Z" transform="translate(1.099)" fill="#fff"/>
      </g>
      <g id="Group_491" data-name="Group 491" transform="translate(38.14 34.605)">
        <path id="Path_315" data-name="Path 315" d="M-.2,0C-.372.05-.534.1-.687.148c-.1.035-.107.035-.014,0l-.013,0L-.82.167C-.618.113-.414.059-.2.005Z" transform="translate(0.82)" fill="#fff"/>
      </g>
      <g id="Group_492" data-name="Group 492" transform="translate(15.617 14.766)">
        <path id="Path_316" data-name="Path 316" d="M-14.754-8.38c3.041,6.054-1.835,15.349-10.586,19.536a21.3,21.3,0,0,0,6.178-9.986A7.989,7.989,0,0,0-21.8-7.374,7.976,7.976,0,0,0-26.944-9c-.881.023-1.734.057-2.647.126H-29.6a1,1,0,0,0-.128.01h-.008c-.221.069-.45.137-.692.212l-.027.01a76.054,76.054,0,0,1-9.912,1.929l-.02.008-.012,0c-.9.106-1.811.194-2.707.263h-.044a35.705,35.705,0,0,1-6.775-.145,18.273,18.273,0,0,1-6.212-1.848c-.074-.037-.15-.081-.224-.125-.251-.146-.494-.293-.743-.455a14.377,14.377,0,0,1-1.474-1.134c-.15-.145-.3-.287-.455-.431a.567.567,0,0,1-.04-.049l7.934-2.645-.1-.194.054-.017C-54.808-19.509-49.9-29.24-40.891-33.55a21.254,21.254,0,0,0-6.174,9.993,7.828,7.828,0,0,0,4.949,9.76,8.155,8.155,0,0,0,2.832.4c.824-.017,1.732-.064,2.714-.148q.981-.083.014,0l.013,0,.106-.015.012-.005h.015c.152-.051.315-.1.482-.147A73.845,73.845,0,0,1-24.875-15.8l.013-.005c1.222-.123,2.44-.209,3.633-.239,0,.008.008.005.008.005s.012-.005.015,0c4.147-.1,8.049.445,11.107,2.071.057.029.116.059.175.1a12.5,12.5,0,0,1,2.381,1.741q.233.2.45.434L-15.175-9l.406.588.015.029Z" transform="translate(59.069 33.55)" fill="#fff"/>
      </g>
      <g id="Group_493" data-name="Group 493" transform="translate(11.612 0.123)">
        <path id="Path_317" data-name="Path 317" d="M-20.644,0-44.337,7.823l-7.9,2.633C-69.468,16.2-75.338,27.02-71.988,33.97L-79.577,36.5A14.21,14.21,0,0,1-82.2,30.9C-86.576,12.628-57.686,3.606-54.426,2.652L-54.99.3-40.933,0h20.289Z" transform="translate(82.65)" fill="#fff"/>
      </g>
      <g id="Group_494" data-name="Group 494" transform="translate(44.261 39.444)">
        <path id="Path_318" data-name="Path 318" d="M-.274,0C-.553.071-.815.145-1.1.219-.857.145-.629.077-.407.01H-.4A.553.553,0,0,1-.272,0Z" transform="translate(1.099)" fill="#fff"/>
      </g>
      <g id="Group_495" data-name="Group 495" transform="translate(9.031 15.108)">
        <path id="Path_319" data-name="Path 319" d="M0,0,.246,0C.3,0,.3,0,.254.005c-.071,0,0,0,.008,0L.315.012C.212.008.108,0,0,0Z" fill="#fff"/>
      </g>
      <g id="Group_496" data-name="Group 496" transform="translate(0.123 16.2)">
        <path id="Path_320" data-name="Path 320" d="M0,0C.083.005.162.008.248.01c-.074,0-.143,0-.209,0A.319.319,0,0,1,0,0" fill="#fff"/>
      </g>
      <g id="Group_497" data-name="Group 497" transform="translate(9.031 15.108)">
        <path id="Path_321" data-name="Path 321" d="M0,0,.246,0C.3,0,.3,0,.254.005c-.071,0,0,0,.008,0L.315.012C.212.008.108,0,0,0Z" fill="#fff"/>
      </g>
      <g id="Group_498" data-name="Group 498" transform="translate(0.123 16.2)">
        <path id="Path_322" data-name="Path 322" d="M0,0C.083.005.162.008.248.01c-.074,0-.143,0-.209,0A.319.319,0,0,1,0,0" fill="#fff"/>
      </g>
      <g id="Group_499" data-name="Group 499" transform="translate(9.541 37.65)">
        <path id="Path_323" data-name="Path 323" d="M0-12.152l23.694-7.823,7.9-2.633c17.229-5.742,23.1-16.564,19.748-23.514l7.589-2.529a14.21,14.21,0,0,1,2.623,5.6C65.932-24.779,37.043-15.758,33.783-14.8l.563,2.354-14.057.3H0Z" transform="translate(0 48.651)" fill="#fff"/>
      </g>
      <g id="Group_500" data-name="Group 500" transform="translate(219.583 34.605)">
        <path id="Path_324" data-name="Path 324" d="M-.2,0C-.372.05-.534.1-.687.148c-.1.035-.107.035-.014,0l-.013,0L-.82.167C-.618.113-.414.059-.2.005Z" transform="translate(0.82)" fill="#fff"/>
      </g>
      <g id="Group_501" data-name="Group 501" transform="translate(225.704 39.444)">
        <path id="Path_325" data-name="Path 325" d="M-.274,0C-.553.071-.815.145-1.1.219-.857.145-.629.077-.407.01H-.4A.553.553,0,0,1-.272,0Z" transform="translate(1.099)" fill="#fff"/>
      </g>
      <g id="Group_502" data-name="Group 502" transform="translate(219.583 34.605)">
        <path id="Path_326" data-name="Path 326" d="M-.2,0C-.372.05-.534.1-.687.148c-.1.035-.107.035-.014,0l-.013,0L-.82.167C-.618.113-.414.059-.2.005Z" transform="translate(0.82)" fill="#fff"/>
      </g>
      <g id="Group_503" data-name="Group 503" transform="translate(197.06 14.766)">
        <path id="Path_327" data-name="Path 327" d="M-14.754-8.38c3.041,6.054-1.835,15.349-10.586,19.536a21.3,21.3,0,0,0,6.178-9.986A7.989,7.989,0,0,0-21.8-7.374,7.976,7.976,0,0,0-26.944-9c-.881.023-1.734.057-2.647.126H-29.6a1,1,0,0,0-.128.01h-.008c-.221.069-.45.137-.692.212l-.027.01a76.054,76.054,0,0,1-9.912,1.929l-.02.008-.012,0c-.9.106-1.811.194-2.707.263h-.044a35.705,35.705,0,0,1-6.775-.145,18.273,18.273,0,0,1-6.212-1.848c-.074-.037-.15-.081-.224-.125-.251-.146-.494-.293-.743-.455a14.377,14.377,0,0,1-1.474-1.134c-.15-.145-.3-.287-.455-.431a.567.567,0,0,1-.04-.049l7.934-2.645-.1-.194.054-.017C-54.808-19.509-49.9-29.24-40.891-33.55a21.254,21.254,0,0,0-6.174,9.993,7.828,7.828,0,0,0,4.949,9.76,8.155,8.155,0,0,0,2.832.4c.824-.017,1.732-.064,2.714-.148q.981-.083.014,0l.013,0,.106-.015.012-.005h.015c.152-.051.315-.1.482-.147A73.845,73.845,0,0,1-24.875-15.8l.013-.005c1.222-.123,2.44-.209,3.633-.239,0,.008.008.005.008.005s.012-.005.015,0c4.147-.1,8.049.445,11.107,2.071.057.029.116.059.175.1a12.5,12.5,0,0,1,2.381,1.741q.233.2.451.434L-15.175-9l.406.588.015.029Z" transform="translate(59.069 33.55)" fill="#fff"/>
      </g>
      <g id="Group_504" data-name="Group 504" transform="translate(193.055 0.123)">
        <path id="Path_328" data-name="Path 328" d="M-20.644,0-44.337,7.823l-7.9,2.633C-69.468,16.2-75.338,27.02-71.988,33.97L-79.577,36.5A14.21,14.21,0,0,1-82.2,30.9C-86.576,12.628-57.686,3.606-54.426,2.652L-54.99.3-40.933,0h20.289Z" transform="translate(82.65)" fill="#fff"/>
      </g>
      <g id="Group_505" data-name="Group 505" transform="translate(225.704 39.444)">
        <path id="Path_329" data-name="Path 329" d="M-.274,0C-.553.071-.815.145-1.1.219-.857.145-.629.077-.407.01H-.4A.553.553,0,0,1-.272,0Z" transform="translate(1.099)" fill="#fff"/>
      </g>
      <g id="Group_506" data-name="Group 506" transform="translate(190.474 15.108)">
        <path id="Path_330" data-name="Path 330" d="M0,0,.246,0C.3,0,.3,0,.254.005c-.071,0,0,0,.008,0L.315.012C.212.008.108,0,0,0Z" fill="#fff"/>
      </g>
      <g id="Group_507" data-name="Group 507" transform="translate(181.566 16.2)">
        <path id="Path_331" data-name="Path 331" d="M0,0C.084.005.162.008.248.01c-.074,0-.143,0-.209,0A.319.319,0,0,1,0,0Z" fill="#fff"/>
      </g>
      <g id="Group_508" data-name="Group 508" transform="translate(190.474 15.108)">
        <path id="Path_332" data-name="Path 332" d="M0,0,.246,0C.3,0,.3,0,.254.005c-.071,0,0,0,.008,0L.315.012C.212.008.108,0,0,0Z" fill="#fff"/>
      </g>
      <g id="Group_509" data-name="Group 509" transform="translate(181.566 16.2)">
        <path id="Path_333" data-name="Path 333" d="M0,0C.084.005.162.008.248.01c-.074,0-.143,0-.209,0A.319.319,0,0,1,0,0Z" fill="#fff"/>
      </g>
      <g id="Group_510" data-name="Group 510" transform="translate(190.983 37.65)">
        <path id="Path_334" data-name="Path 334" d="M0-12.152l23.694-7.823,7.9-2.633c17.229-5.742,23.1-16.564,19.748-23.514l7.589-2.529a14.21,14.21,0,0,1,2.623,5.6C65.932-24.779,37.043-15.758,33.783-14.8l.563,2.354-14.057.3H0Z" transform="translate(0 48.651)" fill="#fff"/>
      </g>
    </g>
  </g>
</svg>
