<svg id="Group_270" data-name="Group 270" xmlns="http://www.w3.org/2000/svg" xmlns:xlink="http://www.w3.org/1999/xlink" width="48.097" height="15.211" viewBox="0 0 48.097 15.211">
  <defs>
    <clipPath id="clip-path">
      <path id="Path_778" data-name="Path 778" d="M0-254.253H48.1v-15.212H0Z" transform="translate(0 269.465)" fill="#fff"/>
    </clipPath>
  </defs>
  <g id="Group_264" data-name="Group 264" transform="translate(0 0)" clip-path="url(#clip-path)">
    <g id="Group_259" data-name="Group 259" transform="translate(0 4.495)">
      <path id="Path_773" data-name="Path 773" d="M-85.444-67.638a2.1,2.1,0,0,1-.492,1.5,1.742,1.742,0,0,1-1.33.521,1.72,1.72,0,0,1-1.324-.521,2.115,2.115,0,0,1-.485-1.5v-4.047h-1.481v4.271a3.435,3.435,0,0,0,.387,1.687,2.563,2.563,0,0,0,1.062,1.055,3.224,3.224,0,0,0,1.527.356,2.915,2.915,0,0,0,1.212-.257,2.418,2.418,0,0,0,.924-.705v.857h1.494v-7.263h-1.494Z" transform="translate(90.556 71.685)" fill="#fff"/>
    </g>
    <g id="Group_260" data-name="Group 260" transform="translate(7.919 4.376)">
      <path id="Path_774" data-name="Path 774" d="M-95.85-7.822a3.287,3.287,0,0,0-1.724-.468,3.149,3.149,0,0,0-1.481.343,3.04,3.04,0,0,0-1.036.844V-8.171h-1.494V2.545h1.494V-1.963a3.291,3.291,0,0,0,1.049.837,3.12,3.12,0,0,0,1.468.336,3.217,3.217,0,0,0,1.724-.481,3.343,3.343,0,0,0,1.226-1.345,4.206,4.206,0,0,0,.446-1.957,4.088,4.088,0,0,0-.446-1.938A3.281,3.281,0,0,0-95.85-7.822m-.157,4.567a2.182,2.182,0,0,1-.813.863,2.1,2.1,0,0,1-1.081.3,2.11,2.11,0,0,1-1.068-.29,2.141,2.141,0,0,1-.813-.85,2.68,2.68,0,0,1-.308-1.312,2.642,2.642,0,0,1,.308-1.3A2.154,2.154,0,0,1-98.97-6.7a2.112,2.112,0,0,1,1.068-.29A2.175,2.175,0,0,1-96.82-6.7a2.12,2.12,0,0,1,.813.83,2.606,2.606,0,0,1,.308,1.3,2.72,2.72,0,0,1-.308,1.318" transform="translate(101.585 8.29)" fill="#fff"/>
    </g>
    <g id="Group_261" data-name="Group 261" transform="translate(15.784 4.376)">
      <path id="Path_775" data-name="Path 775" d="M-75.7-60.037a9.675,9.675,0,0,0-1.291-.428q-.59-.171-.891-.283a1.491,1.491,0,0,1-.511-.31.643.643,0,0,1-.21-.488.7.7,0,0,1,.315-.593,1.547,1.547,0,0,1,.9-.224,1.465,1.465,0,0,1,.957.29,1.073,1.073,0,0,1,.393.778h1.494A2.254,2.254,0,0,0-75.341-63a3.008,3.008,0,0,0-1.986-.626,3.632,3.632,0,0,0-1.462.277,2.271,2.271,0,0,0-.977.758,1.8,1.8,0,0,0-.341,1.061,1.7,1.7,0,0,0,.374,1.147,2.319,2.319,0,0,0,.885.646,11.719,11.719,0,0,0,1.324.435,7.244,7.244,0,0,1,1.226.435.644.644,0,0,1,.387.606.737.737,0,0,1-.347.626,1.681,1.681,0,0,1-.977.244,1.589,1.589,0,0,1-1-.31,1.061,1.061,0,0,1-.439-.771h-1.547a2.11,2.11,0,0,0,.42,1.193,2.681,2.681,0,0,0,1.068.843,3.622,3.622,0,0,0,1.527.31,3.571,3.571,0,0,0,1.462-.277,2.262,2.262,0,0,0,.963-.764,1.886,1.886,0,0,0,.341-1.107,1.7,1.7,0,0,0-.38-1.12,2.407,2.407,0,0,0-.872-.639" transform="translate(80.224 63.629)" fill="#fff"/>
    </g>
    <g id="Group_262" data-name="Group 262" transform="translate(21.826 2.992)">
      <path id="Path_776" data-name="Path 776" d="M-42.034,0h-1.507V1.5h-1.007V2.729h1.007v4.02A1.962,1.962,0,0,0-43,8.291a2.265,2.265,0,0,0,1.547.475h1.18V7.513H-41.2a.94.94,0,0,1-.649-.178.773.773,0,0,1-.19-.586V2.729h1.756V1.5h-1.756Z" transform="translate(44.549)" fill="#fff"/>
    </g>
    <g id="Group_263" data-name="Group 263" transform="translate(26.556 4.376)">
      <path id="Path_777" data-name="Path 777" d="M-98.808-19.608a3.027,3.027,0,0,0-1.016-.837,3.14,3.14,0,0,0-1.488-.336,3.287,3.287,0,0,0-1.724.468A3.326,3.326,0,0,0-104.268-19a4.038,4.038,0,0,0-.452,1.938,4.155,4.155,0,0,0,.452,1.957,3.4,3.4,0,0,0,1.226,1.345,3.161,3.161,0,0,0,1.7.481,3.178,3.178,0,0,0,1.494-.343,2.973,2.973,0,0,0,1.036-.857V-13.4H-97.3v-7.263h-1.507Zm-.308,3.882a2.157,2.157,0,0,1-.806.85,2.1,2.1,0,0,1-1.075.29,2.075,2.075,0,0,1-1.068-.3,2.179,2.179,0,0,1-.813-.863,2.717,2.717,0,0,1-.308-1.318,2.6,2.6,0,0,1,.308-1.3,2.132,2.132,0,0,1,.806-.83A2.138,2.138,0,0,1-101-19.476a2.1,2.1,0,0,1,1.075.29,2.17,2.17,0,0,1,.806.844,2.643,2.643,0,0,1,.308,1.3,2.681,2.681,0,0,1-.308,1.312" transform="translate(104.72 20.781)" fill="#fff"/>
    </g>
  </g>
  <path id="Path_779" data-name="Path 779" d="M625.1-182.575H626.6v-7.263H625.1Z" transform="translate(-589.817 194.333)" fill="#fff"/>
  <g id="Group_266" data-name="Group 266" transform="translate(0 0)" clip-path="url(#clip-path)">
    <g id="Group_265" data-name="Group 265" transform="translate(42.316 4.376)">
      <path id="Path_780" data-name="Path 780" d="M-90.265-70.724a2.407,2.407,0,0,0-.872-.639,9.681,9.681,0,0,0-1.291-.428q-.59-.171-.891-.283a1.489,1.489,0,0,1-.511-.31.644.644,0,0,1-.21-.488.7.7,0,0,1,.315-.593,1.547,1.547,0,0,1,.9-.224,1.465,1.465,0,0,1,.957.29,1.073,1.073,0,0,1,.393.778h1.494a2.254,2.254,0,0,0-.806-1.707,3.008,3.008,0,0,0-1.986-.626,3.632,3.632,0,0,0-1.462.277,2.271,2.271,0,0,0-.977.758,1.8,1.8,0,0,0-.341,1.061,1.7,1.7,0,0,0,.374,1.147,2.32,2.32,0,0,0,.885.646,11.71,11.71,0,0,0,1.324.435,7.249,7.249,0,0,1,1.226.435.644.644,0,0,1,.387.606.737.737,0,0,1-.347.626,1.68,1.68,0,0,1-.977.244,1.589,1.589,0,0,1-1-.31,1.061,1.061,0,0,1-.439-.771h-1.547a2.11,2.11,0,0,0,.419,1.193,2.682,2.682,0,0,0,1.068.843,3.622,3.622,0,0,0,1.527.31,3.572,3.572,0,0,0,1.462-.277,2.262,2.262,0,0,0,.963-.765,1.886,1.886,0,0,0,.341-1.107,1.7,1.7,0,0,0-.38-1.12" transform="translate(95.665 74.955)" fill="#fff"/>
    </g>
  </g>
  <g id="Group_267" data-name="Group 267" transform="translate(35.288 0)">
    <path id="Path_782" data-name="Path 782" d="M-24.759,0V1.49H-26.24v1.5h1.494V1.5h1.481V0Z" transform="translate(26.24)" fill="#fff"/>
  </g>
  <g id="Group_269" data-name="Group 269" transform="translate(0 0)" clip-path="url(#clip-path)">
    <g id="Group_268" data-name="Group 268" transform="translate(38.096 4.495)">
      <path id="Path_783" data-name="Path 783" d="M-52.3,0a2.865,2.865,0,0,0-1.635.371V0h-1.494V7.263h1.494V3.4c0-1.561.472-2.04,1.634-2.04h.674V0H-52.3" transform="translate(55.427)" fill="#fff"/>
    </g>
  </g>
</svg>
